<svg width="582" height="273" viewBox="0 0 582 273" fill="none" xmlns="http://www.w3.org/2000/svg">
<path d="M91.019 107.474C126.501 90.5047 154.269 61.7078 170.211 25.7116C159.926 14.9127 146.556 7.19924 132.157 2.57116L124.444 0C123.93 1.02846 123.416 2.57122 123.416 3.59968C111.074 38.5674 85.8767 66.8501 51.9374 82.7913C28.2828 94.1044 10.7989 114.674 2.57116 139.357L0 147.07C1.02846 147.584 2.57118 148.099 3.59964 148.099C13.37 151.698 23.1404 156.326 32.3966 161.983C45.2524 138.843 65.8216 119.302 91.019 107.474Z" fill="#494F88"/>
<path d="M240.146 109.531C221.119 138.328 194.894 161.469 162.497 176.896C136.271 189.237 116.216 212.378 106.96 240.146L104.389 248.888C114.159 257.63 125.987 264.315 138.842 268.429L146.556 271C147.07 269.972 147.584 268.429 147.584 267.4C159.926 232.433 185.123 204.15 219.063 188.209C242.717 176.896 260.715 156.326 268.429 131.643L271 123.93C260.201 120.844 249.916 115.702 240.146 109.531Z" fill="#494F88"/>
<path d="M83.8198 222.148C96.6756 191.294 120.33 166.097 150.67 151.698C178.438 138.328 201.579 117.759 217.52 92.5617C205.693 81.2486 195.922 68.3927 188.723 52.9658C169.696 87.9335 139.871 116.216 103.361 133.7C82.2771 143.471 65.3075 160.44 55.0228 181.01C66.3359 191.808 75.5921 205.178 82.7913 220.091C82.7913 220.091 83.3056 221.12 83.8198 222.148Z" fill="#494F88"/>
<path d="M330.81 94.49C330.55 95.27 329.9 96.05 328.86 96.83C327.907 97.61 326.65 98 325.09 98H306.89C305.243 98 303.857 97.5233 302.73 96.57C301.69 95.53 301.083 94.36 300.91 93.06L289.6 10.25V9.86C289.6 9.08 289.86 8.43 290.38 7.91C290.987 7.30333 291.68 6.99999 292.46 6.99999H314.82C316.553 6.99999 317.94 7.51999 318.98 8.56C320.107 9.59999 320.757 10.9 320.93 12.46L325.09 52.24L332.63 31.57C332.89 30.7033 333.497 29.88 334.45 29.1C335.49 28.2333 336.79 27.8 338.35 27.8H347.19C348.75 27.8 350.007 28.2333 350.96 29.1C352 29.88 352.65 30.7033 352.91 31.57L360.45 52.24L364.61 12.46C364.783 10.9 365.39 9.59999 366.43 8.56C367.557 7.51999 368.987 6.99999 370.72 6.99999H393.08C393.86 6.99999 394.51 7.30333 395.03 7.91C395.637 8.43 395.94 9.08 395.94 9.86V10.25L384.63 93.06C384.457 94.36 383.807 95.53 382.68 96.57C381.64 97.5233 380.297 98 378.65 98H360.45C358.89 98 357.59 97.61 356.55 96.83C355.597 96.05 354.99 95.27 354.73 94.49L342.77 67.06L330.81 94.49ZM494.819 72.65C495.773 72.65 496.596 72.9967 497.289 73.69C497.983 74.3833 498.329 75.2067 498.329 76.16V94.49C498.329 95.4433 497.983 96.2667 497.289 96.96C496.596 97.6533 495.773 98 494.819 98H412.659C411.706 98 410.883 97.6533 410.189 96.96C409.496 96.2667 409.149 95.4433 409.149 94.49V10.51C409.149 9.55666 409.496 8.73333 410.189 8.04C410.883 7.34666 411.706 6.99999 412.659 6.99999H493.519C494.473 6.99999 495.296 7.34666 495.989 8.04C496.683 8.73333 497.029 9.55666 497.029 10.51V28.84C497.029 29.7933 496.683 30.6167 495.989 31.31C495.296 32.0033 494.473 32.35 493.519 32.35H442.949V40.54H486.369C487.323 40.54 488.146 40.8867 488.839 41.58C489.533 42.2733 489.879 43.0967 489.879 44.05V60.95C489.879 61.9033 489.533 62.7267 488.839 63.42C488.146 64.1133 487.323 64.46 486.369 64.46H442.949V72.65H494.819ZM384.37 233.65C385.323 233.65 386.147 233.997 386.84 234.69C387.533 235.383 387.88 236.207 387.88 237.16V255.49C387.88 256.443 387.533 257.267 386.84 257.96C386.147 258.653 385.323 259 384.37 259H302.21C301.257 259 300.433 258.653 299.74 257.96C299.047 257.267 298.7 256.443 298.7 255.49V171.51C298.7 170.557 299.047 169.733 299.74 169.04C300.433 168.347 301.257 168 302.21 168H383.07C384.023 168 384.847 168.347 385.54 169.04C386.233 169.733 386.58 170.557 386.58 171.51V189.84C386.58 190.793 386.233 191.617 385.54 192.31C384.847 193.003 384.023 193.35 383.07 193.35H332.5V201.54H375.92C376.873 201.54 377.697 201.887 378.39 202.58C379.083 203.273 379.43 204.097 379.43 205.05V221.95C379.43 222.903 379.083 223.727 378.39 224.42C377.697 225.113 376.873 225.46 375.92 225.46H332.5V233.65H384.37ZM494.559 232.35C495.513 232.35 496.336 232.697 497.029 233.39C497.723 234.083 498.069 234.907 498.069 235.86V255.49C498.069 256.443 497.723 257.267 497.029 257.96C496.336 258.653 495.513 259 494.559 259H411.099C410.146 259 409.323 258.653 408.629 257.96C407.936 257.267 407.589 256.443 407.589 255.49V236.77C407.589 235.643 407.806 234.69 408.239 233.91C408.673 233.13 409.106 232.567 409.539 232.22L450.619 194.65H413.829C412.876 194.65 412.053 194.303 411.359 193.61C410.666 192.917 410.319 192.093 410.319 191.14V171.51C410.319 170.557 410.666 169.733 411.359 169.04C412.053 168.347 412.876 168 413.829 168H491.829C492.783 168 493.606 168.347 494.299 169.04C494.993 169.733 495.339 170.557 495.339 171.51V190.1C495.339 191.92 494.776 193.35 493.649 194.39L453.089 232.35H494.559Z" fill="#494F88"/>
</svg>
